# xmcd
#
# Track frame offsets:
#	150
#	17317
#	33115
#	54255
#	71964
#	82916
#	106211
#	125119
#	144154
#	159343
#
# Disc length: 2375 seconds
#
# Revision: 0
# Processed by: cddbd v1.4PL0 Copyright (c) Steve Scherf et al.
# Submitted via: dBpowerAMP V4.0
#
DISCID=7209450a
DTITLE=Stacey Earle and Mark Stuart - In the Ruff,  Never Gonna Let You Go, Disc  2,  pre production
DYEAR=1900
DGENRE=Alt. Country
TTITLE0=Fishbowl
TTITLE1=Spread Your Wings
TTITLE2=Never Gonna Let You Go
TTITLE3=When She's Having Fun
TTITLE4=If You Want My Love
TTITLE5=Me and the Man in the Moon
TTITLE6=Cry Night After Night
TTITLE7=Maybe that's Just Me
TTITLE8=Lookin' for Fool's Gold
TTITLE9=Lay Down
EXTD=
EXTT0=
EXTT1=
EXTT2=
EXTT3=
EXTT4=
EXTT5=
EXTT6=
EXTT7=
EXTT8=
EXTT9=
PLAYORDER=
